<?xml version="1.0" standalone="no"?>
<!DOCTYPE svg PUBLIC "-//W3C//DTD SVG 20010904//EN"
 "http://www.w3.org/TR/2001/REC-SVG-20010904/DTD/svg10.dtd">
<svg version="1.0" xmlns="http://www.w3.org/2000/svg"
 width="471.000000pt" height="376.000000pt" viewBox="0 0 471.000000 376.000000"
 preserveAspectRatio="xMidYMid meet">

<g transform="translate(0.000000,376.000000) scale(0.100000,-0.100000)"
fill="#000000" stroke="none">
<path d="M3073 3041 c-129 -79 -339 -524 -462 -979 l-46 -172 -65 -19 c-36
-11 -90 -25 -120 -31 -84 -18 -322 -24 -423 -11 -98 13 -187 39 -187 54 0 6
83 121 184 256 285 383 393 555 446 710 24 73 16 119 -25 141 -76 41 -174 -37
-295 -235 -89 -146 -264 -522 -355 -765 -16 -41 -38 -86 -49 -99 -30 -34 -211
-181 -281 -228 -240 -161 -493 -219 -859 -195 -82 6 -155 8 -163 5 -8 -3 -13
-15 -11 -27 3 -19 12 -22 93 -29 50 -5 182 -6 295 -4 164 4 222 9 289 26 205
52 361 141 595 340 18 15 19 15 12 -4 -109 -279 -247 -802 -249 -943 -1 -97
20 -127 86 -126 63 0 119 49 202 173 106 160 180 342 211 524 18 104 9 203
-27 307 -11 34 -19 64 -16 66 3 3 49 0 102 -7 174 -21 400 -3 573 47 23 7 23
6 15 -57 -4 -35 -8 -99 -8 -142 0 -74 2 -80 28 -103 16 -13 40 -24 55 -24 47
0 152 58 284 156 310 233 454 274 834 244 161 -14 243 -3 339 45 82 40 175
118 175 146 0 38 -29 33 -79 -14 -52 -49 -120 -87 -191 -108 -32 -9 -126 -13
-325 -14 -258 -1 -286 -2 -360 -23 -122 -34 -284 -120 -430 -228 -120 -90
-212 -144 -243 -144 -41 0 -40 180 1 260 13 25 62 106 109 180 185 291 394
681 448 835 53 152 40 235 -38 235 -20 0 -51 -9 -69 -19z m82 -61 c7 -22 -24
-132 -60 -214 -65 -147 -365 -683 -420 -751 -15 -19 -16 -18 -10 20 10 62 117
377 170 500 117 273 237 465 290 465 15 0 26 -7 30 -20z m-807 -78 c5 -46 -70
-192 -200 -389 -124 -188 -296 -423 -311 -423 -5 0 -7 6 -4 13 63 159 96 232
172 382 116 229 190 349 255 409 58 54 83 57 88 8z m-540 -1197 c26 -48 27
-56 26 -195 0 -128 -4 -156 -28 -235 -54 -178 -172 -392 -263 -476 -63 -58
-77 -51 -81 38 -5 129 97 516 249 941 l11 33 30 -28 c16 -15 42 -50 56 -78z"/>
<path d="M4281 2184 c-25 -32 -26 -38 -7 -53 26 -22 76 20 76 63 0 26 -46 19
-69 -10z"/>
</g>
</svg>
