<svg version="1.2" xmlns="http://www.w3.org/2000/svg" viewBox="0 0 512 512" width="512" height="512">
	<title>log-in-svg</title>
	<style>
		.s0 { fill: #ffffff } 
	</style>
	<g id="Layer">
		<path id="Layer" class="s0" d="m166.6 1.6c-31.3 5.7-56.1 29-64.8 60.9-2 7.5-2.1 10.3-2.2 42-0.1 33 0 34.1 2 38 4.9 9 12.5 13.9 22 13.8 6.7-0.1 11.1-1.8 16.2-6.7 6.7-6.2 6.6-5.8 7.3-41.6 0.5-30.5 0.7-32.8 2.7-38.1 3.2-8 9-14.2 17-18.1l6.7-3.3 115-0.3c113.1-0.2 115.1-0.2 121.7 1.8 8.4 2.5 16.4 9.5 20.5 17.8l2.8 5.7v182.5 182.5l-2.8 5.7c-4.1 8.3-12.1 15.3-20.5 17.8-6.6 2-8.6 2-121.7 1.8l-115-0.3-6.7-3.3c-8-3.9-13.8-10.1-17-18.1-2.1-5.3-2.2-7.4-2.7-42.1-0.7-40.2-0.5-39.2-7.3-45.7-4.5-4.4-10-6.5-16.9-6.4-9.1 0-16.5 4.8-21.3 13.6-2 3.9-2.1 5-2 42 0 35.7 0.2 38.5 2.2 46 8 29.6 30.3 52 59.6 59.8l8.1 2.2h122 122l8.8-2.8c10.5-3.3 17.1-6.5 25.2-12.2 16.5-11.7 28.5-30.2 32.6-49.9 1.8-8.7 1.9-17.2 1.9-190.6 0-173.4-0.1-181.9-1.9-190.6-6.2-30-28.7-53.8-59.4-62.7-7.1-2.1-8.6-2.1-126.7-2.3-100.2-0.2-120.8 0-127.4 1.2z"/>
		<path id="Layer" class="s0" d="m254.6 147.4c-9.4 3.5-15.7 12.2-15.8 21.8-0.1 10.5 0.4 11.3 27 38l24.6 24.8h-119.8c-91.2 0-120.9 0.3-124 1.2-8.6 2.6-16.6 13.6-16.6 22.8 0 9.2 8 20.2 16.6 22.8 3.1 0.9 32.8 1.2 124 1.2h119.9l-24.2 24.2c-13.2 13.4-24.9 25.9-25.9 27.8-2.5 4.7-2.4 15.2 0 20 5.8 11.2 17 16 29.2 12.5 5.8-1.6 6.4-2.1 51.6-47.3 31-31 46.3-47.1 47.9-50.2 3-5.8 3.2-15.7 0.5-21.5-2.6-5.5-91.6-94.5-96.9-96.9-5.3-2.4-13.3-2.9-18.1-1.2z"/>
	</g>
</svg>